<svg width="695" height="247" viewBox="0 0 695 247" fill="none" xmlns="http://www.w3.org/2000/svg">
<path d="M117.941 141.2C121.044 138.015 126.449 140.161 126.522 144.606L126.991 172.86C127.014 174.247 126.459 175.581 125.461 176.543L68.3821 231.541C66.4772 233.377 63.4724 233.411 61.5262 231.619L3.88644 178.554C2.87929 177.626 2.29637 176.327 2.27368 174.958L1.80489 146.673C1.73121 142.228 7.06181 139.904 10.2681 142.985L61.4102 192.115C63.3918 194.019 66.5382 193.967 68.4556 191.998L117.941 141.2Z" fill="white"/>
<path d="M117.651 99.1399C120.857 102.22 126.188 99.8968 126.114 95.4513L125.648 67.2973C125.624 65.8523 124.976 64.4884 123.871 63.557L66.2302 14.9755C64.3337 13.3769 61.5519 13.4105 59.6944 15.0542L2.6165 65.5644C1.52241 66.5326 0.906513 67.9309 0.930723 69.3917L1.39689 97.5183C1.47057 101.964 6.87524 104.109 9.97771 100.924L59.4636 50.126C61.381 48.1577 64.5274 48.1056 66.509 50.0092L117.651 99.1399Z" fill="white"/>
<rect x="1.92697" y="122.089" width="87.4874" height="87.4874" rx="10" transform="rotate(-45.9495 1.92697 122.089)" fill="white"/>
<path d="M310.75 60.5L256 117L315 185.5H275.75L230 132.75H220.25V185.5H187.75V10.5H220.25V103.5H230.75L270.75 60.5H310.75ZM383.201 189.5C339.201 189.5 318.451 168.25 318.451 123C318.451 77.75 339.201 56.5 383.201 56.5C427.201 56.5 447.951 77.75 447.951 123C447.951 168.25 427.201 189.5 383.201 189.5ZM383.201 160.25C405.951 160.25 415.451 149.5 415.451 123C415.451 96.5 405.951 85.75 383.201 85.75C360.451 85.75 350.951 96.5 350.951 123C350.951 149.5 360.451 160.25 383.201 160.25ZM547.709 60.5V89.75H523.459C506.459 89.75 500.709 95.5 500.709 111.5V185.5H468.209V108.5C468.209 73.25 481.959 60.5 519.959 60.5H547.709ZM624.668 189.5C580.168 189.5 559.168 168 559.168 123C559.168 78 580.168 56.5 624.668 56.5C664.668 56.5 686.418 74 687.918 107.25H655.418C653.418 91.5 643.918 83.75 624.668 83.75C601.168 83.75 591.668 95 591.668 123C591.668 151 601.168 162.25 624.668 162.25C643.918 162.25 653.418 154.5 655.418 138.75H687.918C686.418 172 664.668 189.5 624.668 189.5Z" fill="white"/>
</svg>
