<svg width="1500" height="500" viewBox="0 0 1500 500" fill="none" xmlns="http://www.w3.org/2000/svg">
<path d="M520.161 267.2C523.264 264.015 528.669 266.161 528.742 270.606L529.211 298.86C529.234 300.247 528.679 301.581 527.681 302.543L470.602 357.541C468.697 359.377 465.692 359.411 463.746 357.619L406.106 304.554C405.099 303.626 404.516 302.327 404.494 300.958L404.025 272.673C403.951 268.228 409.282 265.904 412.488 268.985L463.63 318.115C465.612 320.019 468.758 319.967 470.676 317.998L520.161 267.2Z" fill="black"/>
<path d="M519.871 225.14C523.077 228.22 528.408 225.897 528.334 221.451L527.868 193.297C527.844 191.852 527.196 190.488 526.091 189.557L468.45 140.975C466.554 139.377 463.772 139.41 461.914 141.054L404.837 191.564C403.742 192.533 403.127 193.931 403.151 195.392L403.617 223.518C403.691 227.964 409.095 230.109 412.198 226.924L461.684 176.126C463.601 174.158 466.747 174.106 468.729 176.009L519.871 225.14Z" fill="black"/>
<rect x="404.147" y="248.089" width="87.4874" height="87.4874" rx="10" transform="rotate(-45.9495 404.147 248.089)" fill="black"/>
<path d="M712.97 186.5L658.22 243L717.22 311.5H677.97L632.22 258.75H622.47V311.5H589.97V136.5H622.47V229.5H632.97L672.97 186.5H712.97ZM785.421 315.5C741.421 315.5 720.671 294.25 720.671 249C720.671 203.75 741.421 182.5 785.421 182.5C829.421 182.5 850.171 203.75 850.171 249C850.171 294.25 829.421 315.5 785.421 315.5ZM785.421 286.25C808.171 286.25 817.671 275.5 817.671 249C817.671 222.5 808.171 211.75 785.421 211.75C762.671 211.75 753.171 222.5 753.171 249C753.171 275.5 762.671 286.25 785.421 286.25ZM949.929 186.5V215.75H925.679C908.679 215.75 902.929 221.5 902.929 237.5V311.5H870.429V234.5C870.429 199.25 884.179 186.5 922.179 186.5H949.929ZM1026.89 315.5C982.388 315.5 961.388 294 961.388 249C961.388 204 982.388 182.5 1026.89 182.5C1066.89 182.5 1088.64 200 1090.14 233.25H1057.64C1055.64 217.5 1046.14 209.75 1026.89 209.75C1003.39 209.75 993.888 221 993.888 249C993.888 277 1003.39 288.25 1026.89 288.25C1046.14 288.25 1055.64 280.5 1057.64 264.75H1090.14C1088.64 298 1066.89 315.5 1026.89 315.5Z" fill="black"/>
</svg>
